#!OML:ASF F:\VICON\USERDATA\INSTALL\rory3\rory3.ASF
:FULLY-SPECIFIED
:DEGREES
329
root -7.09091 17.5251 8.40245 -180.121 38.4241 -175.996
lowerback 13.3322 1.47951 -1.34128
upperback 0.71768 1.92573 1.08306
thorax -6.80647 1.03575 1.53348
lowerneck -17.2307 -8.19925 -12.2845
upperneck 30.4042 -10.0983 9.57276
head 14.5564 -4.12142 4.28821
rclavicle 8.5875e-014 -2.34566e-014
rhumerus -34.5989 -13.6316 -80.1175
rradius 35.1624
rwrist 7.02166
rhand -20.5457 4.40078
rfingers 7.12502
rthumb 5.81294 -25.4995
lclavicle 8.5875e-014 -2.34566e-014
lhumerus -35.8866 9.58336 73.3982
lradius 36.7698
lwrist -3.12384
lhand -15.4078 26.4416
lfingers 7.12502
lthumb 10.7714 56.1454
rfemur -1.98112 5.28602 13.1744
rtibia 23.7054
rfoot -19.0972 6.74571
rtoes -16.5773
lfemur -5.87134 -14.6717 -1.79327
ltibia 25.4751
lfoot -11.5824 -8.84315
ltoes -17.1894
330
root -7.00695 17.5437 8.48331 -180.106 37.9746 -175.931
lowerback 13.1986 1.49352 -1.29966
upperback 0.925392 1.96042 1.08613
thorax -6.51057 1.05251 1.51173
lowerneck -17.4484 -8.20923 -12.202
upperneck 30.2768 -10.1102 9.52519
head 14.5394 -4.12525 4.23995
rclavicle 1.34229e-013 -3.77691e-015
rhumerus -34.0623 -13.6278 -80.2184
rradius 34.9256
rwrist 7.60429
rhand -20.0859 4.80249
rfingers 7.12502
rthumb 6.25686 -25.0851
lclavicle 1.34229e-013 -3.77691e-015
lhumerus -35.6735 10.1019 73.384
lradius 36.5545
lwrist -3.65669
lhand -17.4422 24.6439
lfingers 7.12502
lthumb 8.8086 54.4401
rfemur -1.86922 5.0013 13.7097
rtibia 23.6806
rfoot -19.0147 6.4728
rtoes -16.2963
lfemur -6.26197 -14.2535 -1.48058
ltibia 25.9272
lfoot -10.9928 -8.38187
ltoes -17.9607
331
root -6.92334 17.5701 8.56391 -180.103 37.4914 -176.073
lowerback 13.1022 1.48822 -1.45645
upperback 0.9936 1.92893 1.02421
thorax -6.38589 1.04043 1.54375
lowerneck -17.5645 -8.17206 -12.0191
upperneck 30.2057 -10.0823 9.45769
head 14.5106 -4.10069 4.17998
rclavicle -5.97845e-014 1.59028e-015
rhumerus -33.7677 -13.6851 -80.3042
rradius 34.7898
rwrist 8.22508
rhand -19.5066 5.30616
rfingers 7.12502
rthumb 6.81613 -24.5641
lclavicle -5.97845e-014 1.59028e-015
lhumerus -35.7281 10.4761 73.2865
lradius 36.3041
lwrist -4.53131
lhand -18.4132 22.9373
lfingers 7.12502
lthumb 7.87152 52.7707
rfemur -1.83237 4.80412 14.0598
rtibia 23.5979
rfoot -18.9305 6.07941
rtoes -16.0245
lfemur -6.71198 -14.2591 -1.44798
ltibia 26.3505
lfoot -10.3325 -7.1255
ltoes -18.5811
332
root -6.84301 17.6016 8.6403 -180.162 36.968 -176.333
lowerback 13.0658 1.47211 -1.6401
upperback 0.970338 1.8728 0.929728
thorax -6.39058 1.01611 1.5588
lowerneck -17.5764 -8.12862 -11.9301
upperneck 30.2353 -10.0338 9.44202
head 14.512 -4.06778 4.1697
rclavicle -9.63609e-014 9.54166e-015
rhumerus -33.6804 -13.7501 -80.3633
rradius 34.7611
rwrist 8.63422
rhand -19.1127 5.66453
rfingers 7.12502
rthumb 7.19638 -24.1931
lclavicle -9.63609e-014 9.54166e-015
lhumerus -35.9453 10.6333 73.2556
lradius 36.2375
lwrist -5.06266
lhand -18.4264 22.8689
lfingers 7.12502
lthumb 7.85882 52.7028
rfemur -1.78657 4.59183 14.2718
rtibia 23.4631
rfoot -18.7867 5.7452
rtoes -15.371
lfemur -7.12084 -14.7726 -1.65004
ltibia 26.7773
lfoot -9.56141 -5.36573
ltoes -17.7951
333
root -6.7654 17.6297 8.71491 -180.176 36.3997 -176.478
lowerback 13.0733 1.43797 -1.6987
upperback 0.937467 1.81412 0.880614
thorax -6.42739 0.988255 1.55045
lowerneck -17.5798 -8.12569 -11.9319
upperneck 30.2787 -10.0186 9.43174
head 14.5296 -4.05918 4.17112
rclavicle -1.78409e-014 -6.16232e-015
rhumerus -33.6027 -13.5263 -80.4781
rradius 34.788
rwrist 8.60898
rhand -19.0659 5.65624
rfingers 7.12502
rthumb 7.24154 -24.1999
lclavicle -1.78409e-014 -6.16232e-015
lhumerus -36.1389 10.6155 73.3327
lradius 36.2077
lwrist -5.13064
lhand -18.7673 22.8099
lfingers 7.12502
lthumb 7.52979 52.6559
rfemur -1.68058 4.29897 14.5495
rtibia 23.2589
rfoot -18.6104 5.55843
rtoes -14.4159
lfemur -7.57266 -14.825 -1.79406
ltibia 27.2756
lfoot -8.91054 -3.81981
ltoes -17.8859
334
root -6.69219 17.6543 8.78827 -180.202 35.8426 -176.576
lowerback 13.19 1.42092 -1.71026
upperback 0.890797 1.78637 0.866997
thorax -6.54091 0.975587 1.5448
lowerneck -17.5835 -8.17889 -11.9937
upperneck 30.3312 -10.0509 9.36815
head 14.5592 -4.08584 4.15068
rclavicle -5.2181e-016 -1.98785e-015
rhumerus -33.4993 -13.2299 -80.5356
rradius 34.7184
rwrist 8.52765
rhand -19.1166 5.61266
rfingers 7.12502
rthumb 7.19261 -24.2451
lclavicle -5.2181e-016 -1.98785e-015
lhumerus -36.381 10.4982 73.5183
lradius 36.1896
lwrist -5.19412
lhand -19.0448 22.6883
lfingers 7.12502
lthumb 7.26195 52.5437
rfemur -1.51766 3.85182 14.8392
rtibia 22.9901
rfoot -18.4778 5.4701
rtoes -14.1944
lfemur -8.07173 -14.5157 -1.90665
ltibia 27.899
lfoot -8.22554 -2.62425
ltoes -14.7817
335
root -6.62295 17.6785 8.85851 -180.165 35.3358 -176.63
lowerback 13.1937 1.41506 -1.70108
upperback 0.885316 1.78289 0.903653
thorax -6.54966 0.97448 1.57885
lowerneck -17.5572 -8.23436 -12.2203
upperneck 30.3287 -10.0765 9.43045
head 14.5773 -4.11491 4.21097
rclavicle 1.80397e-014 5.36719e-015
rhumerus -33.3312 -12.9559 -80.5348
rradius 34.694
rwrist 8.42075
rhand -19.1988 5.66304
rfingers 7.12502
rthumb 7.11325 -24.1974
lclavicle 1.80397e-014 5.36719e-015
lhumerus -36.5179 10.4953 73.8022
lradius 36.0965
lwrist -5.31155
lhand -19.0931 22.7473
lfingers 7.12502
lthumb 7.21532 52.6043
rfemur -1.41724 3.37913 15.1261
rtibia 22.7018
rfoot -18.3775 5.4984
rtoes -13.6993
lfemur -8.65815 -14.1639 -2.02821
ltibia 28.6631
lfoot -7.48359 -1.29426
ltoes -8.89208
336
root -6.5545 17.6955 8.92437 -180.083 34.936 -176.539
lowerback 13.133 1.44327 -1.49854
upperback 0.937548 1.85403 0.906032
thorax -6.45679 1.00368 1.45536
lowerneck -17.4863 -8.25592 -12.2849
upperneck 30.2299 -10.0975 9.45743
head 14.5269 -4.13107 4.22646
rclavicle 3.13086e-015 1.78906e-014
rhumerus -33.2205 -12.8281 -80.5481
rradius 34.7907
rwrist 8.25718
rhand -19.3154 5.77177
rfingers 7.12502
rthumb 7.00073 -24.0925
lclavicle 3.13086e-015 1.78906e-014
lhumerus -36.4623 10.3966 74.0449
lradius 35.8805
lwrist -5.51938
lhand -19.128 22.5999
lfingers 7.12502
lthumb 7.18157 52.458
rfemur -1.31416 3.09662 15.5292
rtibia 22.4521
rfoot -18.1765 5.62286
rtoes -12.1801
lfemur -9.13148 -13.7062 -2.12715
ltibia 29.4955
lfoot -6.8689 0.399995
ltoes -6.00941
337
root -6.48909 17.7103 8.98694 -180.002 34.5709 -176.391
lowerback 13.1388 1.4845 -1.23044
upperback 0.970642 1.95182 0.920666
thorax -6.42029 1.04486 1.30129
lowerneck -17.4689 -8.26512 -12.241
upperneck 30.1851 -10.0933 9.37072
head 14.493 -4.13617 4.18166
rclavicle 4.54223e-014 -2.26615e-014
rhumerus -33.1836 -12.747 -80.5104
rradius 34.9543
rwrist 8.05403
rhand -19.2985 5.76005
rfingers 7.12502
rthumb 7.01705 -24.1036
lclavicle 4.54223e-014 -2.26615e-014
lhumerus -36.4465 10.0696 74.3605
lradius 35.7019
lwrist -5.43305
lhand -19.1412 22.6841
lfingers 7.12502
lthumb 7.1689 52.5426
rfemur -1.21858 2.90604 15.9887
rtibia 22.2586
rfoot -18.0059 5.57642
rtoes -11.1487
lfemur -9.51779 -13.1593 -2.26253
ltibia 30.3452
lfoot -6.45481 2.3114
ltoes -4.21594
